<?xml version="1.0" encoding="iso-8859-1"?>
<!-- Generator: Adobe Illustrator 19.0.0, SVG Export Plug-In . SVG Version: 6.00 Build 0)  -->
<svg version="1.1" id="Layer_1" xmlns="http://www.w3.org/2000/svg" xmlns:xlink="http://www.w3.org/1999/xlink" x="0px" y="0px"
	 viewBox="0 0 512 512" style="enable-background:new 0 0 512 512;" xml:space="preserve">
<path style="fill:#CEE8FA;" d="M98.853,465.385l6.957-12.044c13.523-23.417,44.611-77.257,75.027-129.995l2.323-4.03l314.672,0.788
	l-83.825,145.282H98.853z"/>
<path style="fill:#2D527C;" d="M510.11,313.034c-2.523-4.38-7.187-7.085-12.241-7.097l-160.787-0.402L197.058,60.778h135.778
	l99.106,172.855c3.893,6.788,12.548,9.136,19.336,5.243c6.787-3.891,9.134-12.548,5.243-19.336L353.333,39.565
	c-2.524-4.403-7.213-7.12-12.289-7.12h-168.41c-2.54,0-4.981,0.681-7.104,1.914c-2.129,1.213-3.94,2.975-5.217,5.168L1.926,311.352
	c-2.556,4.387-2.568,9.804-0.035,14.205l84.605,146.855c1.364,2.369,3.316,4.179,5.56,5.386c2.051,1.123,4.376,1.757,6.797,1.757
	h315.156c5.063,0,9.739-2.702,12.271-7.086l83.825-145.282C512.63,322.806,512.631,317.413,510.11,313.034z M172.438,74.992
	l67.225,117.506c-4.846,8.447-18.794,32.672-40.874,70.994c-3.906,6.779-1.577,15.44,5.202,19.347
	c6.777,3.906,15.44,1.577,19.347-5.202c11.252-19.53,24.02-41.693,32.68-56.742l48.375,84.557l-121.197-0.303
	c-0.011,0-0.024,0-0.035,0c-5.064,0-9.744,2.703-12.274,7.092l-2.32,4.026c-26.944,46.716-54.406,94.281-69.725,120.811
	L30.539,318.523L172.438,74.992z M405.827,451.22H123.393c14.989-25.958,41.582-72.018,67.939-117.716l282.006,0.706L405.827,451.22
	z"/>
<g>
</g>
<g>
</g>
<g>
</g>
<g>
</g>
<g>
</g>
<g>
</g>
<g>
</g>
<g>
</g>
<g>
</g>
<g>
</g>
<g>
</g>
<g>
</g>
<g>
</g>
<g>
</g>
<g>
</g>
</svg>
